<mxfile host="app.diagrams.net" modified="2022-12-23T14:08:40.686Z" agent="5.0 (Windows NT 10.0; Win64; x64) AppleWebKit/537.36 (KHTML, like Gecko) Chrome/108.0.0.0 Safari/537.36" etag="9KiAuM7u8nVSbmln613X" version="20.7.4" type="github">
  <diagram id="UiSTUA0IJVcJlZZG_GdR" name="Страница 1">
    <mxGraphModel dx="2868" dy="1528" grid="1" gridSize="10" guides="1" tooltips="1" connect="1" arrows="1" fold="1" page="1" pageScale="1" pageWidth="4681" pageHeight="3300" math="0" shadow="0">
      <root>
        <mxCell id="0" />
        <mxCell id="1" parent="0" />
        <mxCell id="rskVRa0RSq6qMvYZ-V6b-1" style="edgeStyle=orthogonalEdgeStyle;rounded=1;orthogonalLoop=1;jettySize=auto;html=1;entryX=0;entryY=0.5;entryDx=0;entryDy=0;fontSize=20;" edge="1" parent="1" source="rskVRa0RSq6qMvYZ-V6b-2" target="rskVRa0RSq6qMvYZ-V6b-8">
          <mxGeometry relative="1" as="geometry" />
        </mxCell>
        <mxCell id="rskVRa0RSq6qMvYZ-V6b-2" value="&lt;font style=&quot;font-size: 20px;&quot;&gt;Пройти мед. комиссии&lt;/font&gt;" style="rounded=0;whiteSpace=wrap;html=1;fontSize=20;" vertex="1" parent="1">
          <mxGeometry x="440" y="360" width="240" height="120" as="geometry" />
        </mxCell>
        <mxCell id="rskVRa0RSq6qMvYZ-V6b-3" value="" style="endArrow=classic;html=1;rounded=0;fontSize=15;entryX=0;entryY=0.5;entryDx=0;entryDy=0;" edge="1" parent="1" target="rskVRa0RSq6qMvYZ-V6b-2">
          <mxGeometry width="50" height="50" relative="1" as="geometry">
            <mxPoint x="200" y="420" as="sourcePoint" />
            <mxPoint x="440" y="400" as="targetPoint" />
          </mxGeometry>
        </mxCell>
        <mxCell id="rskVRa0RSq6qMvYZ-V6b-4" value="" style="endArrow=classic;html=1;rounded=1;fontSize=15;startArrow=classic;startFill=1;endFill=1;exitX=0.5;exitY=1;exitDx=0;exitDy=0;entryX=0.5;entryY=1;entryDx=0;entryDy=0;" edge="1" parent="1" source="rskVRa0RSq6qMvYZ-V6b-2" target="rskVRa0RSq6qMvYZ-V6b-34">
          <mxGeometry width="50" height="50" relative="1" as="geometry">
            <mxPoint x="560" y="520" as="sourcePoint" />
            <mxPoint x="1800" y="970" as="targetPoint" />
            <Array as="points">
              <mxPoint x="560" y="960" />
              <mxPoint x="1805" y="960" />
            </Array>
          </mxGeometry>
        </mxCell>
        <mxCell id="rskVRa0RSq6qMvYZ-V6b-6" value="Врачи" style="text;html=1;strokeColor=none;fillColor=none;align=center;verticalAlign=middle;whiteSpace=wrap;rounded=0;fontSize=20;" vertex="1" parent="1">
          <mxGeometry x="470" y="850" width="60" height="30" as="geometry" />
        </mxCell>
        <mxCell id="rskVRa0RSq6qMvYZ-V6b-7" style="edgeStyle=orthogonalEdgeStyle;rounded=1;orthogonalLoop=1;jettySize=auto;html=1;entryX=0;entryY=0.5;entryDx=0;entryDy=0;fontSize=20;" edge="1" parent="1" source="rskVRa0RSq6qMvYZ-V6b-8" target="rskVRa0RSq6qMvYZ-V6b-21">
          <mxGeometry relative="1" as="geometry" />
        </mxCell>
        <mxCell id="rskVRa0RSq6qMvYZ-V6b-8" value="Пройти обучение в автошколе" style="rounded=0;whiteSpace=wrap;html=1;fontSize=20;" vertex="1" parent="1">
          <mxGeometry x="900" y="480" width="200" height="120" as="geometry" />
        </mxCell>
        <mxCell id="rskVRa0RSq6qMvYZ-V6b-9" value="" style="endArrow=classic;html=1;rounded=0;fontSize=20;entryX=0.25;entryY=0;entryDx=0;entryDy=0;" edge="1" parent="1" target="rskVRa0RSq6qMvYZ-V6b-2" source="rskVRa0RSq6qMvYZ-V6b-10">
          <mxGeometry width="50" height="50" relative="1" as="geometry">
            <mxPoint x="480" y="240" as="sourcePoint" />
            <mxPoint x="910" y="430" as="targetPoint" />
          </mxGeometry>
        </mxCell>
        <mxCell id="rskVRa0RSq6qMvYZ-V6b-10" value="План прохождения &lt;br&gt;мед. комиссии" style="text;html=1;align=center;verticalAlign=middle;resizable=0;points=[];autosize=1;strokeColor=none;fillColor=none;fontSize=20;" vertex="1" parent="1">
          <mxGeometry x="400" y="30" width="200" height="60" as="geometry" />
        </mxCell>
        <mxCell id="rskVRa0RSq6qMvYZ-V6b-11" value="" style="endArrow=classic;html=1;rounded=0;fontSize=20;entryX=0.75;entryY=0;entryDx=0;entryDy=0;" edge="1" parent="1" target="rskVRa0RSq6qMvYZ-V6b-2" source="rskVRa0RSq6qMvYZ-V6b-12">
          <mxGeometry width="50" height="50" relative="1" as="geometry">
            <mxPoint x="640" y="160" as="sourcePoint" />
            <mxPoint x="730" y="120" as="targetPoint" />
          </mxGeometry>
        </mxCell>
        <mxCell id="rskVRa0RSq6qMvYZ-V6b-12" value="Стандарты здоровья &lt;br&gt;для вождения" style="text;html=1;align=center;verticalAlign=middle;resizable=0;points=[];autosize=1;strokeColor=none;fillColor=none;fontSize=20;" vertex="1" parent="1">
          <mxGeometry x="510" y="175" width="220" height="60" as="geometry" />
        </mxCell>
        <mxCell id="rskVRa0RSq6qMvYZ-V6b-13" value="Справка о возможности&lt;br&gt;водить автомобиль" style="text;html=1;align=center;verticalAlign=middle;resizable=0;points=[];autosize=1;strokeColor=none;fillColor=none;fontSize=20;" vertex="1" parent="1">
          <mxGeometry x="680" y="360" width="250" height="60" as="geometry" />
        </mxCell>
        <mxCell id="rskVRa0RSq6qMvYZ-V6b-14" value="" style="endArrow=classic;html=1;rounded=0;fontSize=20;entryX=0.25;entryY=1;entryDx=0;entryDy=0;" edge="1" parent="1" target="rskVRa0RSq6qMvYZ-V6b-8">
          <mxGeometry width="50" height="50" relative="1" as="geometry">
            <mxPoint x="950" y="960" as="sourcePoint" />
            <mxPoint x="1070" y="600" as="targetPoint" />
          </mxGeometry>
        </mxCell>
        <mxCell id="rskVRa0RSq6qMvYZ-V6b-15" value="Учителя" style="text;html=1;align=center;verticalAlign=middle;resizable=0;points=[];autosize=1;strokeColor=none;fillColor=none;fontSize=20;" vertex="1" parent="1">
          <mxGeometry x="850" y="840" width="100" height="40" as="geometry" />
        </mxCell>
        <mxCell id="rskVRa0RSq6qMvYZ-V6b-16" value="" style="endArrow=classic;html=1;rounded=0;fontSize=20;entryX=0.693;entryY=1.004;entryDx=0;entryDy=0;entryPerimeter=0;" edge="1" parent="1" target="rskVRa0RSq6qMvYZ-V6b-8">
          <mxGeometry width="50" height="50" relative="1" as="geometry">
            <mxPoint x="1039" y="960" as="sourcePoint" />
            <mxPoint x="1110" y="750" as="targetPoint" />
          </mxGeometry>
        </mxCell>
        <mxCell id="rskVRa0RSq6qMvYZ-V6b-17" value="Инструкторы" style="text;html=1;align=center;verticalAlign=middle;resizable=0;points=[];autosize=1;strokeColor=none;fillColor=none;fontSize=20;" vertex="1" parent="1">
          <mxGeometry x="1040" y="840" width="140" height="40" as="geometry" />
        </mxCell>
        <mxCell id="rskVRa0RSq6qMvYZ-V6b-18" value="" style="endArrow=classic;html=1;rounded=0;fontSize=20;entryX=0.25;entryY=0;entryDx=0;entryDy=0;" edge="1" parent="1" target="rskVRa0RSq6qMvYZ-V6b-8" source="rskVRa0RSq6qMvYZ-V6b-19">
          <mxGeometry width="50" height="50" relative="1" as="geometry">
            <mxPoint x="959" y="320" as="sourcePoint" />
            <mxPoint x="1030" y="540" as="targetPoint" />
          </mxGeometry>
        </mxCell>
        <mxCell id="rskVRa0RSq6qMvYZ-V6b-19" value="Стандарты &lt;br&gt;обучения" style="text;html=1;align=center;verticalAlign=middle;resizable=0;points=[];autosize=1;strokeColor=none;fillColor=none;fontSize=20;" vertex="1" parent="1">
          <mxGeometry x="884" y="210" width="130" height="60" as="geometry" />
        </mxCell>
        <mxCell id="rskVRa0RSq6qMvYZ-V6b-20" style="edgeStyle=orthogonalEdgeStyle;rounded=1;orthogonalLoop=1;jettySize=auto;html=1;entryX=0;entryY=0.5;entryDx=0;entryDy=0;fontSize=20;" edge="1" parent="1" source="rskVRa0RSq6qMvYZ-V6b-21" target="rskVRa0RSq6qMvYZ-V6b-34">
          <mxGeometry relative="1" as="geometry" />
        </mxCell>
        <mxCell id="rskVRa0RSq6qMvYZ-V6b-21" value="Сдать экзамены в автошколе" style="rounded=0;whiteSpace=wrap;html=1;fontSize=20;" vertex="1" parent="1">
          <mxGeometry x="1300" y="640" width="220" height="130" as="geometry" />
        </mxCell>
        <mxCell id="rskVRa0RSq6qMvYZ-V6b-22" value="" style="endArrow=classic;html=1;rounded=0;fontSize=20;entryX=0.449;entryY=1.011;entryDx=0;entryDy=0;entryPerimeter=0;" edge="1" parent="1" target="rskVRa0RSq6qMvYZ-V6b-21">
          <mxGeometry width="50" height="50" relative="1" as="geometry">
            <mxPoint x="1399" y="960" as="sourcePoint" />
            <mxPoint x="1160" y="720" as="targetPoint" />
          </mxGeometry>
        </mxCell>
        <mxCell id="rskVRa0RSq6qMvYZ-V6b-28" value="Человек" style="text;html=1;align=center;verticalAlign=middle;resizable=0;points=[];autosize=1;strokeColor=none;fillColor=none;fontSize=20;" vertex="1" parent="1">
          <mxGeometry x="220" y="380" width="100" height="40" as="geometry" />
        </mxCell>
        <mxCell id="rskVRa0RSq6qMvYZ-V6b-29" value="" style="endArrow=classic;html=1;rounded=0;fontSize=20;entryX=0.75;entryY=0;entryDx=0;entryDy=0;" edge="1" parent="1" target="rskVRa0RSq6qMvYZ-V6b-8" source="rskVRa0RSq6qMvYZ-V6b-30">
          <mxGeometry width="50" height="50" relative="1" as="geometry">
            <mxPoint x="1080" y="320" as="sourcePoint" />
            <mxPoint x="1109.7800000000002" y="429.99999999999994" as="targetPoint" />
          </mxGeometry>
        </mxCell>
        <mxCell id="rskVRa0RSq6qMvYZ-V6b-30" value="&lt;font style=&quot;font-size: 20px;&quot;&gt;План обучения&lt;/font&gt;" style="text;html=1;align=center;verticalAlign=middle;resizable=0;points=[];autosize=1;strokeColor=none;fillColor=none;" vertex="1" parent="1">
          <mxGeometry x="970" y="280" width="160" height="40" as="geometry" />
        </mxCell>
        <mxCell id="rskVRa0RSq6qMvYZ-V6b-31" value="Экзаменаторы" style="text;html=1;align=center;verticalAlign=middle;resizable=0;points=[];autosize=1;strokeColor=none;fillColor=none;fontSize=20;" vertex="1" parent="1">
          <mxGeometry x="1240" y="840" width="160" height="40" as="geometry" />
        </mxCell>
        <mxCell id="rskVRa0RSq6qMvYZ-V6b-32" value="Допуск к &lt;br&gt;экзамену" style="text;html=1;align=center;verticalAlign=middle;resizable=0;points=[];autosize=1;strokeColor=none;fillColor=none;fontSize=20;" vertex="1" parent="1">
          <mxGeometry x="1150" y="480" width="110" height="60" as="geometry" />
        </mxCell>
        <mxCell id="rskVRa0RSq6qMvYZ-V6b-33" style="edgeStyle=orthogonalEdgeStyle;rounded=0;orthogonalLoop=1;jettySize=auto;html=1;fontSize=20;" edge="1" parent="1" source="rskVRa0RSq6qMvYZ-V6b-34">
          <mxGeometry relative="1" as="geometry">
            <mxPoint x="2130" y="815" as="targetPoint" />
          </mxGeometry>
        </mxCell>
        <mxCell id="rskVRa0RSq6qMvYZ-V6b-34" value="Сдать экзамена в ГИБДД" style="rounded=0;whiteSpace=wrap;html=1;fontSize=20;" vertex="1" parent="1">
          <mxGeometry x="1700" y="750" width="210" height="130" as="geometry" />
        </mxCell>
        <mxCell id="rskVRa0RSq6qMvYZ-V6b-35" value="Свидетельство о&amp;nbsp;&lt;br&gt;профессии&lt;br&gt;водителя" style="text;html=1;align=center;verticalAlign=middle;resizable=0;points=[];autosize=1;strokeColor=none;fillColor=none;fontSize=20;" vertex="1" parent="1">
          <mxGeometry x="1550" y="620" width="190" height="90" as="geometry" />
        </mxCell>
        <mxCell id="rskVRa0RSq6qMvYZ-V6b-36" value="Водительские права" style="text;html=1;align=center;verticalAlign=middle;resizable=0;points=[];autosize=1;strokeColor=none;fillColor=none;fontSize=20;" vertex="1" parent="1">
          <mxGeometry x="1910" y="770" width="210" height="40" as="geometry" />
        </mxCell>
        <mxCell id="rskVRa0RSq6qMvYZ-V6b-38" value="Экзаменаторы &lt;br&gt;ГИБДД" style="text;html=1;align=center;verticalAlign=middle;resizable=0;points=[];autosize=1;strokeColor=none;fillColor=none;fontSize=20;" vertex="1" parent="1">
          <mxGeometry x="1560" y="890" width="160" height="60" as="geometry" />
        </mxCell>
        <mxCell id="rskVRa0RSq6qMvYZ-V6b-39" value="" style="endArrow=none;html=1;rounded=0;fontSize=20;" edge="1" parent="1">
          <mxGeometry width="50" height="50" relative="1" as="geometry">
            <mxPoint x="1100" y="1060" as="sourcePoint" />
            <mxPoint x="1100" y="960" as="targetPoint" />
          </mxGeometry>
        </mxCell>
        <mxCell id="rskVRa0RSq6qMvYZ-V6b-40" value="Сотрудники организации" style="text;html=1;align=center;verticalAlign=middle;resizable=0;points=[];autosize=1;strokeColor=none;fillColor=none;fontSize=20;" vertex="1" parent="1">
          <mxGeometry x="975" y="1060" width="250" height="40" as="geometry" />
        </mxCell>
        <mxCell id="rskVRa0RSq6qMvYZ-V6b-42" value="" style="endArrow=classic;html=1;rounded=0;fontSize=20;entryX=0.25;entryY=0;entryDx=0;entryDy=0;exitX=0.5;exitY=1;exitDx=0;exitDy=0;" edge="1" parent="1" source="rskVRa0RSq6qMvYZ-V6b-43" target="rskVRa0RSq6qMvYZ-V6b-21">
          <mxGeometry width="50" height="50" relative="1" as="geometry">
            <mxPoint x="1350" y="360" as="sourcePoint" />
            <mxPoint x="1060" y="490" as="targetPoint" />
          </mxGeometry>
        </mxCell>
        <mxCell id="rskVRa0RSq6qMvYZ-V6b-43" value="&lt;font style=&quot;font-size: 20px;&quot;&gt;Стандарты экзамена в автошколе&lt;/font&gt;" style="text;html=1;strokeColor=none;fillColor=none;align=center;verticalAlign=middle;whiteSpace=wrap;rounded=0;" vertex="1" parent="1">
          <mxGeometry x="1263" y="320" width="180" height="70" as="geometry" />
        </mxCell>
        <mxCell id="rskVRa0RSq6qMvYZ-V6b-44" value="" style="endArrow=classic;html=1;rounded=0;fontSize=20;entryX=0.25;entryY=0;entryDx=0;entryDy=0;" edge="1" parent="1" source="rskVRa0RSq6qMvYZ-V6b-45" target="rskVRa0RSq6qMvYZ-V6b-34">
          <mxGeometry width="50" height="50" relative="1" as="geometry">
            <mxPoint x="1750" y="470" as="sourcePoint" />
            <mxPoint x="1365" y="650" as="targetPoint" />
          </mxGeometry>
        </mxCell>
        <mxCell id="rskVRa0RSq6qMvYZ-V6b-45" value="&lt;font style=&quot;font-size: 20px;&quot;&gt;Стандарты экзамена в ГИБДД&lt;/font&gt;" style="text;html=1;strokeColor=none;fillColor=none;align=center;verticalAlign=middle;whiteSpace=wrap;rounded=0;" vertex="1" parent="1">
          <mxGeometry x="1660" y="490" width="180" height="70" as="geometry" />
        </mxCell>
        <mxCell id="rskVRa0RSq6qMvYZ-V6b-46" value="" style="endArrow=classic;html=1;rounded=0;fontSize=20;entryX=0.75;entryY=0;entryDx=0;entryDy=0;" edge="1" parent="1" source="rskVRa0RSq6qMvYZ-V6b-47" target="rskVRa0RSq6qMvYZ-V6b-21">
          <mxGeometry width="50" height="50" relative="1" as="geometry">
            <mxPoint x="1460" y="480" as="sourcePoint" />
            <mxPoint x="1365" y="650" as="targetPoint" />
          </mxGeometry>
        </mxCell>
        <mxCell id="rskVRa0RSq6qMvYZ-V6b-47" value="Правила проведения экзамена" style="text;html=1;strokeColor=none;fillColor=none;align=center;verticalAlign=middle;whiteSpace=wrap;rounded=0;fontSize=20;" vertex="1" parent="1">
          <mxGeometry x="1404" y="450" width="126" height="70" as="geometry" />
        </mxCell>
        <mxCell id="rskVRa0RSq6qMvYZ-V6b-48" value="&lt;p style=&quot;font-size: inherit; font-weight: inherit; margin: 0.67em 0px; color: rgb(0, 0, 0); font-style: normal; font-variant-ligatures: normal; font-variant-caps: normal; letter-spacing: normal; orphans: 2; text-indent: 0px; text-transform: none; widows: 2; word-spacing: 0px; -webkit-text-stroke-width: 0px; text-decoration-thickness: initial; text-decoration-style: initial; text-decoration-color: initial;&quot;&gt;Постановление Правительства РФ от 24.10.2014 N 1097 (ред. от 25.06.2022) &quot;О допуске к управлению транспортными средствами&quot;&lt;/p&gt;" style="text;whiteSpace=wrap;html=1;fontSize=20;align=center;" vertex="1" parent="1">
          <mxGeometry x="1580" y="360" width="560" height="120" as="geometry" />
        </mxCell>
        <mxCell id="rskVRa0RSq6qMvYZ-V6b-49" value="" style="endArrow=classic;html=1;rounded=0;fontSize=20;entryX=0.75;entryY=0;entryDx=0;entryDy=0;exitX=0.5;exitY=1;exitDx=0;exitDy=0;" edge="1" parent="1" source="rskVRa0RSq6qMvYZ-V6b-48" target="rskVRa0RSq6qMvYZ-V6b-34">
          <mxGeometry width="50" height="50" relative="1" as="geometry">
            <mxPoint x="1760.2868852459019" y="490" as="sourcePoint" />
            <mxPoint x="1762.5" y="760" as="targetPoint" />
          </mxGeometry>
        </mxCell>
      </root>
    </mxGraphModel>
  </diagram>
</mxfile>
